<mxfile host="65bd71144e">
    <diagram id="uY5-RRwIo0BSx6Q1QqhO" name="ページ1">
        <mxGraphModel dx="732" dy="436" grid="1" gridSize="10" guides="1" tooltips="1" connect="1" arrows="1" fold="1" page="1" pageScale="1" pageWidth="827" pageHeight="1169" math="0" shadow="0">
            <root>
                <mxCell id="0"/>
                <mxCell id="1" parent="0"/>
                <mxCell id="cKouqz_D4hwZFvPdDdeg-2" value="ユーザー" style="shape=umlActor;verticalLabelPosition=bottom;verticalAlign=top;html=1;outlineConnect=0;" parent="1" vertex="1">
                    <mxGeometry x="230" y="250" width="30" height="60" as="geometry"/>
                </mxCell>
                <mxCell id="cKouqz_D4hwZFvPdDdeg-3" value="web構文" style="rounded=0;whiteSpace=wrap;html=1;" parent="1" vertex="1">
                    <mxGeometry x="20" y="30" width="120" height="60" as="geometry"/>
                </mxCell>
                <mxCell id="cKouqz_D4hwZFvPdDdeg-6" value="" style="swimlane;startSize=0;" parent="1" vertex="1">
                    <mxGeometry x="400" y="180" width="200" height="300" as="geometry"/>
                </mxCell>
                <mxCell id="cKouqz_D4hwZFvPdDdeg-8" value="システム内部" style="text;html=1;align=center;verticalAlign=middle;resizable=0;points=[];autosize=1;strokeColor=none;fillColor=none;" parent="cKouqz_D4hwZFvPdDdeg-6" vertex="1">
                    <mxGeometry x="50" y="10" width="100" height="30" as="geometry"/>
                </mxCell>
                <mxCell id="cKouqz_D4hwZFvPdDdeg-9" value="名前を変更する" style="ellipse;whiteSpace=wrap;html=1;" parent="cKouqz_D4hwZFvPdDdeg-6" vertex="1">
                    <mxGeometry x="35" y="40" width="130" height="50" as="geometry"/>
                </mxCell>
                <mxCell id="cKouqz_D4hwZFvPdDdeg-10" value="時刻に応じた挨拶をする" style="ellipse;whiteSpace=wrap;html=1;" parent="cKouqz_D4hwZFvPdDdeg-6" vertex="1">
                    <mxGeometry x="35" y="120" width="135" height="50" as="geometry"/>
                </mxCell>
                <mxCell id="2" value="足し算をする" style="ellipse;whiteSpace=wrap;html=1;" vertex="1" parent="cKouqz_D4hwZFvPdDdeg-6">
                    <mxGeometry x="45" y="220" width="120" height="40" as="geometry"/>
                </mxCell>
                <mxCell id="6" value="" style="endArrow=none;html=1;entryX=0.02;entryY=0.777;entryDx=0;entryDy=0;entryPerimeter=0;" edge="1" parent="cKouqz_D4hwZFvPdDdeg-6">
                    <mxGeometry width="50" height="50" relative="1" as="geometry">
                        <mxPoint x="-120" y="100" as="sourcePoint"/>
                        <mxPoint x="35" y="243.10000000000002" as="targetPoint"/>
                    </mxGeometry>
                </mxCell>
                <mxCell id="cKouqz_D4hwZFvPdDdeg-11" value="" style="endArrow=none;html=1;rounded=0;" parent="1" edge="1">
                    <mxGeometry width="50" height="50" relative="1" as="geometry">
                        <mxPoint x="280" y="280" as="sourcePoint"/>
                        <mxPoint x="420" y="250" as="targetPoint"/>
                    </mxGeometry>
                </mxCell>
                <mxCell id="cKouqz_D4hwZFvPdDdeg-12" value="" style="endArrow=none;html=1;rounded=0;" parent="1" edge="1">
                    <mxGeometry width="50" height="50" relative="1" as="geometry">
                        <mxPoint x="280" y="280" as="sourcePoint"/>
                        <mxPoint x="420" y="320" as="targetPoint"/>
                    </mxGeometry>
                </mxCell>
                <mxCell id="cKouqz_D4hwZFvPdDdeg-14" value="RoboDog" style="text;html=1;align=center;verticalAlign=middle;whiteSpace=wrap;rounded=0;" parent="1" vertex="1">
                    <mxGeometry x="215" y="190" width="60" height="30" as="geometry"/>
                </mxCell>
            </root>
        </mxGraphModel>
    </diagram>
</mxfile>